# xmcd CD database file
#
# Track frame offsets:
#	150
#	10222
#	21029
#	30481
#	39793
#	53155
#	62917
#	72534
#	81991
#	94003
#	105570
#	115632
#	123289
#	136211
#	152863
#	170870
#	189332
#	210354
#	236176
#	262288
#	287715
#
# Disc length: 4001 seconds
#
# Revision: 1
# Processed by: cddbd v1.5.2PL0 Copyright (c) Steve Scherf et al.
# Submitted via: CDex 1.50Beta7
#
DISCID=250f9f15
DTITLE=J. J. Johnson - The Complete '60s Bigband Recordings- Disc 2
DYEAR=2007
DGENRE=Jazz
TTITLE0=Once In A Lifetime
TTITLE1=Sunrise, Sunset
TTITLE2=Sew The Buttons On
TTITLE3=More Than One Way
TTITLE4=Night Song
TTITLE5=Come Back To Me
TTITLE6=Somethings Coming
TTITLE7=Why Did I Choose You
TTITLE8=The Joker
TTITLE9=Goodbye Old Girl
TTITLE10=I Believe In You
TTITLE11=Xanadu
TTITLE12=Say When
TTITLE13=Ballade
TTITLE14=Little Dave
TTITLE15=Space Walk
TTITLE16=In Walked Horace
TTITLE17=Blue
TTITLE18=Euro 1
TTITLE19=Euro 2
TTITLE20=Short Cake 
EXTD=YEAR: 2007
EXTT0=
EXTT1=
EXTT2=
EXTT3=
EXTT4=
EXTT5=
EXTT6=
EXTT7=
EXTT8=
EXTT9=
EXTT10=
EXTT11=
EXTT12=
EXTT13=
EXTT14=
EXTT15=
EXTT16=
EXTT17=
EXTT18=
EXTT19=
EXTT20=
PLAYORDER=
